<?xml version="1.0" encoding="UTF-8"?>
<svg version="1.1" xmlns="http://www.w3.org/2000/svg" width="800" height="800">
<path d="M0 0 C264 0 528 0 800 0 C800 264 800 528 800 800 C536 800 272 800 0 800 C0 536 0 272 0 0 Z " fill="#FEFEFE" transform="translate(0,0)"/>
<path d="M0 0 C200.97 0 401.94 0 609 0 C611.29706722 18.37653776 611.29706722 18.37653776 611.86621094 25.44213867 C611.9350071 26.2615585 612.00380325 27.08097834 612.07468414 27.92522907 C612.29762674 30.58923208 612.51599813 33.25358796 612.734375 35.91796875 C612.89435396 37.8382835 613.05466125 39.75857091 613.215271 41.67883301 C613.64226534 46.7924265 614.06552369 51.90632244 614.48800659 57.02029037 C615.19468541 65.56325327 615.90815374 74.10565385 616.62127686 82.64808083 C616.80105154 84.80186731 616.98069806 86.95566449 617.16021729 89.10947227 C618.3577965 103.47204125 619.58668395 117.83139433 620.859375 132.1875 C621.00236644 133.80479195 621.14533154 135.42208622 621.28826904 137.03938293 C621.88132603 143.74257483 622.47720056 150.44547246 623.08458328 157.14738274 C623.26858216 159.18626743 623.45024653 161.22534455 623.63092041 163.26452637 C623.84619347 165.69215309 624.0653056 168.11944462 624.28948975 170.54626465 C624.91990231 177.72601544 625.0894758 184.79211464 625 192 C621.04 192 617.08 192 613 192 C609.17545316 184.4446963 605.38896886 176.88179395 601.82910156 169.19750977 C578.38466818 118.73893628 542.34883372 50.6892876 487 30 C461.12114457 20.62626685 423.26333063 25.33732319 401 25 C401 100.24 401 175.48 401 253 C430.5397364 249.59156888 450.43543037 244.96303353 473 227 C473.60585938 226.53722656 474.21171875 226.07445312 474.8359375 225.59765625 C494.05118707 210.49996016 505.0589268 185.40015673 508.05151367 161.68481445 C508.41593949 158.45952663 508.72570547 155.23421904 509 152 C513.29 152 517.58 152 522 152 C522 227.24 522 302.48 522 380 C517.71 380 513.42 380 509 380 C508.72736328 377.93492187 508.72736328 377.93492187 508.44921875 375.828125 C505.33703161 352.75009263 499.37196113 335.44517395 485 317 C484.35417969 316.16855469 483.70835937 315.33710938 483.04296875 314.48046875 C467.42113592 295.70138128 441.84544891 283.67976209 418 280 C415.03686246 279.74211854 412.07189508 279.57976813 409.1015625 279.4296875 C408.31950439 279.38706787 407.53744629 279.34444824 406.73168945 279.30053711 C404.82130977 279.19691835 402.91067736 279.09797661 401 279 C401.0841063 302.8274568 401.17931468 326.65484725 401.28752708 350.4822073 C401.33752334 361.54712497 401.38396712 372.61203572 401.421875 383.67700195 C401.45494737 393.32784022 401.49486129 402.97862256 401.54279006 412.62939888 C401.56790441 417.73337758 401.58972906 422.83731991 401.60334396 427.94134331 C401.61630244 432.7585949 401.63850089 437.57572078 401.66738319 442.39290237 C401.67635249 444.14827287 401.68212382 445.90366354 401.68421364 447.65905571 C401.72893032 479.55296255 407.09257855 513.99435577 427 540 C427.58136719 540.76828125 428.16273438 541.5365625 428.76171875 542.328125 C436.34031563 551.61305911 445.55307135 555.3240946 457 558 C457 561.96 457 565.92 457 570 C356.35 570 255.7 570 152 570 C152 565.71 152 561.42 152 557 C153.588125 556.79375 155.17625 556.5875 156.8125 556.375 C168.33413939 554.24246006 176.97225572 547.88179315 183.80078125 538.53515625 C202.6956514 510.00432128 207.27843116 477.3723187 207.31884766 443.83886719 C207.32818033 442.02312796 207.33835375 440.20739289 207.34928894 438.3916626 C207.3762274 433.53350649 207.39162895 428.67537874 207.40471697 423.81716824 C207.42050857 418.71363057 207.44724626 413.61014955 207.4727478 408.50665283 C207.51925521 398.87419738 207.55613361 389.24173092 207.58942068 379.6092217 C207.62784206 368.62948768 207.67719872 357.64981095 207.72740483 346.67012548 C207.83030687 324.11345963 207.91970092 301.55675686 208 279 C205.26610006 279.14876337 202.53244305 279.3007477 199.79882812 279.45458984 C198.64269012 279.51700111 198.64269012 279.51700111 197.4631958 279.58067322 C171.34049946 281.06742322 147.19393222 293.56057244 129 312 C128.27425781 312.72703125 127.54851562 313.4540625 126.80078125 314.203125 C109.36563324 332.70013861 102.48939856 355.2817366 100 380 C95.71 380 91.42 380 87 380 C87 304.76 87 229.52 87 152 C91.29 152 95.58 152 100 152 C100.226875 154.083125 100.45375 156.16625 100.6875 158.3125 C104.35117361 186.94994873 117.02101173 211.70616048 139.5625 230.08984375 C141.98446911 231.84656805 144.44623509 233.44125756 147 235 C148.04542969 235.65484375 149.09085938 236.3096875 150.16796875 236.984375 C168.6162674 248.2328855 186.48894691 251.56592979 208 253 C208 177.76 208 102.52 208 25 C168.28535232 23.0810085 168.28535232 23.0810085 123.3125 29.5 C122.55066406 29.75990723 121.78882813 30.01981445 121.00390625 30.28759766 C108.69466564 34.69722007 97.82181305 41.39927722 88 50 C87.29488281 50.58523437 86.58976562 51.17046875 85.86328125 51.7734375 C81.06685634 55.81157047 76.99879093 60.18190793 73 65 C72.07814795 66.07423844 71.15627079 67.14845534 70.234375 68.22265625 C60.4484584 79.78740893 52.2190771 92.29539451 44 105 C43.36852051 105.96873047 42.73704102 106.93746094 42.08642578 107.93554688 C34.20933936 120.02874217 26.77170336 132.25447547 20 145 C19.52320801 145.89332031 19.04641602 146.78664063 18.55517578 147.70703125 C10.8493673 162.18296057 3.09677636 176.7580591 -3 192 C-7.29 192 -11.58 192 -16 192 C-15.4802644 171.25471801 -13.47514605 150.65065338 -11.58086014 129.99658585 C-10.85009776 122.00687628 -10.13266031 114.01595074 -9.41409111 106.02513695 C-9.23161837 103.99616095 -9.04896653 101.96720105 -8.86613655 99.93825722 C-7.58726548 85.73872741 -6.35153802 71.53624429 -5.171875 57.328125 C-5.10190496 56.48539473 -5.03193493 55.64266445 -4.95984459 54.7743969 C-4.29968728 46.81165722 -3.64635795 38.84836703 -2.99783134 30.88467216 C-2.76380888 28.01454668 -2.52836189 25.14453894 -2.2927475 22.27454376 C-2.13471523 20.3406188 -1.97920519 18.40648823 -1.8237915 16.47235107 C-1.72926697 15.31849915 -1.63474243 14.16464722 -1.53735352 12.97583008 C-1.45711441 11.98376053 -1.37687531 10.99169098 -1.29420471 9.96955872 C-0.96381976 6.63481437 -0.47391295 3.31739063 0 0 Z " fill="#000000" transform="translate(105,115)"/>
</svg>
