<?xml version="1.0" encoding="UTF-8"?>
<svg version="1.1" xmlns="http://www.w3.org/2000/svg" width="800" height="800">
<path d="M0 0 C264 0 528 0 800 0 C800 264 800 528 800 800 C536 800 272 800 0 800 C0 536 0 272 0 0 Z " fill="#000000" transform="translate(0,0)"/>
<path d="M0 0 C200.97 0 401.94 0 609 0 C611.24974776 17.99798209 611.24974776 17.99798209 611.75854492 24.15014648 C611.81600671 24.83355386 611.87346849 25.51696123 611.93267155 26.22107792 C612.11831354 28.43750873 612.29939025 30.6542859 612.48046875 32.87109375 C612.61521974 34.48867413 612.75030057 36.10622707 612.88568115 37.72375488 C613.24798451 42.06102737 613.60653458 46.39860217 613.9643364 50.73624802 C614.57449029 58.12176868 615.19159859 65.50671407 615.80824471 72.89169502 C615.96784151 74.80333973 616.12730902 76.71499523 616.2866497 78.6266613 C617.41537264 92.16252123 618.57543496 105.69533455 619.76605797 119.22588921 C620.01362039 122.03971535 620.26054075 124.85359715 620.50727844 127.66749573 C621.21305146 135.71251063 621.92070748 143.75732793 622.63907051 151.80122948 C622.93275792 155.10198423 623.22216819 158.40310447 623.51050568 161.70433044 C623.64400866 163.22205641 623.77933126 164.73962372 623.9167099 166.25700378 C624.69512576 174.86235102 625.13884991 183.3537442 625 192 C621.04 192 617.08 192 613 192 C609.17545316 184.4446963 605.38896886 176.88179395 601.82910156 169.19750977 C578.4099133 118.7932704 542.34142101 50.61219393 487 30 C459.74431068 20.4922014 428.59829934 25.39997535 401 25 C401 100.24 401 175.48 401 253 C430.5397364 249.59156888 450.43543037 244.96303353 473 227 C473.60585938 226.53722656 474.21171875 226.07445312 474.8359375 225.59765625 C494.05118707 210.49996016 505.0589268 185.40015673 508.05151367 161.68481445 C508.41593949 158.45952663 508.72570547 155.23421904 509 152 C513.29 152 517.58 152 522 152 C522 227.24 522 302.48 522 380 C517.71 380 513.42 380 509 380 C508.72736328 377.93492187 508.72736328 377.93492187 508.44921875 375.828125 C505.33703161 352.75009263 499.37196113 335.44517395 485 317 C484.35417969 316.16855469 483.70835937 315.33710938 483.04296875 314.48046875 C467.09529432 295.30968538 441.30107951 283.57847435 417 280 C414.19423732 279.74880223 411.3868891 279.58214011 408.57421875 279.4296875 C407.84182983 279.38706787 407.10944092 279.34444824 406.3548584 279.30053711 C404.57008938 279.19713556 402.7850678 279.09810856 401 279 C401.06076357 302.74112425 401.13842308 326.48214256 401.23571491 350.22314644 C401.28051231 361.24868941 401.31996316 372.27420123 401.34643555 383.29980469 C401.36954655 392.91958172 401.40308834 402.53925884 401.44870156 412.15895641 C401.47245869 417.24354988 401.49130129 422.32804549 401.49761391 427.41269302 C401.39080853 456.84359765 401.39080853 456.84359765 405 486 C405.23626334 487.32297682 405.47148953 488.64613942 405.70552063 489.96951294 C409.72157555 511.67472543 418.97020757 537.7091126 437.8984375 550.79296875 C443.85750677 554.21555686 450.37968736 556.27296192 457 558 C457 561.96 457 565.92 457 570 C356.35 570 255.7 570 152 570 C152 565.71 152 561.42 152 557 C153.588125 556.79375 155.17625 556.5875 156.8125 556.375 C168.50777592 554.21032168 177.26202717 547.73194595 184.0234375 538.125 C196.41417605 518.75556963 203.02677877 497.70819341 206 475 C206.16779433 473.80078163 206.33558867 472.60156326 206.50846767 471.36600494 C207.02460823 467.2098744 207.15243844 463.08570727 207.15821838 458.90075684 C207.16315636 458.12621359 207.16809434 457.35167035 207.17318195 456.5536561 C207.1884356 453.98043418 207.19688434 451.40723696 207.20532227 448.83398438 C207.21491035 446.98060899 207.22492097 445.12723575 207.23532104 443.27386475 C207.26227536 438.25798329 207.28333602 433.24209253 207.30332303 428.22617912 C207.32524124 422.97844637 207.3526013 417.73074203 207.37937927 412.48303223 C207.42922743 402.55267699 207.47419539 392.62230592 207.51740164 382.6919198 C207.56684145 371.38358725 207.62173451 360.07528321 207.67708123 348.76697826 C207.79078031 325.51134547 207.8976455 302.2556853 208 279 C205.26610006 279.14876337 202.53244305 279.3007477 199.79882812 279.45458984 C198.64269012 279.51700111 198.64269012 279.51700111 197.4631958 279.58067322 C171.34049946 281.06742322 147.19393222 293.56057244 129 312 C128.27425781 312.72703125 127.54851562 313.4540625 126.80078125 314.203125 C109.36563324 332.70013861 102.48939856 355.2817366 100 380 C95.71 380 91.42 380 87 380 C87 304.76 87 229.52 87 152 C91.29 152 95.58 152 100 152 C100.226875 154.083125 100.45375 156.16625 100.6875 158.3125 C104.35117361 186.94994873 117.02101173 211.70616048 139.5625 230.08984375 C141.98446911 231.84656805 144.44623509 233.44125756 147 235 C148.04542969 235.65484375 149.09085938 236.3096875 150.16796875 236.984375 C168.6162674 248.2328855 186.48894691 251.56592979 208 253 C208 177.76 208 102.52 208 25 C168.28856407 23.08044025 168.28856407 23.08044025 123.3125 29.5 C122.54993896 29.76063232 121.78737793 30.02126465 121.00170898 30.28979492 C108.12031135 34.91036864 97.22956033 41.95672482 87 51 C86.34644531 51.53367188 85.69289063 52.06734375 85.01953125 52.6171875 C80.47473056 56.32927636 76.74805467 60.49679199 73 65 C72.56478027 65.50692383 72.12956055 66.01384766 71.68115234 66.53613281 C61.32212005 78.6071425 52.61650325 91.65023588 44 105 C43.43861328 105.86625 42.87722656 106.7325 42.29882812 107.625 C24.90407653 134.53683111 9.87810537 162.65334975 -3 192 C-7.29 192 -11.58 192 -16 192 C-15.4802644 171.25471801 -13.47514605 150.65065338 -11.58086014 129.99658585 C-10.85009776 122.00687628 -10.13266031 114.01595074 -9.41409111 106.02513695 C-9.23161837 103.99616095 -9.04896653 101.96720105 -8.86613655 99.93825722 C-7.58726548 85.73872741 -6.35153802 71.53624429 -5.171875 57.328125 C-5.10190496 56.48539473 -5.03193493 55.64266445 -4.95984459 54.7743969 C-4.29968728 46.81165722 -3.64635795 38.84836703 -2.99783134 30.88467216 C-2.76380888 28.01454668 -2.52836189 25.14453894 -2.2927475 22.27454376 C-2.13471523 20.3406188 -1.97920519 18.40648823 -1.8237915 16.47235107 C-1.72926697 15.31849915 -1.63474243 14.16464722 -1.53735352 12.97583008 C-1.45711441 11.98376053 -1.37687531 10.99169098 -1.29420471 9.96955872 C-0.96381976 6.63481437 -0.47391295 3.31739063 0 0 Z " fill="#FEFEFE" transform="translate(105,115)"/>
</svg>
