<?xml version="1.0" encoding="UTF-8"?>
<svg version="1.1" xmlns="http://www.w3.org/2000/svg" width="500" height="500">
<path d="M0 0 C1.15397008 0.00037972 2.30794017 0.00075944 3.49687904 0.00115067 C4.13961489 -0.00000318 4.78235073 -0.00115702 5.44456342 -0.00234583 C7.62498565 -0.00501875 9.80533585 -0.00048484 11.98575443 0.00394398 C13.5540418 0.00350842 15.1223291 0.00263378 16.69061601 0.00135481 C21.02096391 -0.00089305 25.35128732 0.0031351 29.6816321 0.00813287 C34.34355311 0.01243303 39.00547262 0.01099126 43.66739506 0.0102306 C51.75140377 0.00970509 59.83540443 0.01285473 67.91941112 0.01846844 C79.60766974 0.02657976 91.29592444 0.02919828 102.98418557 0.03045643 C121.94552107 0.03264753 140.90685229 0.03930918 159.86818546 0.04875904 C178.29233889 0.05793166 196.71649115 0.06501323 215.1406464 0.06926686 C216.27544199 0.06952958 217.41023759 0.0697923 218.57942093 0.07006299 C224.27209737 0.07136798 229.96477381 0.0726317 235.65745026 0.07387489 C282.9180466 0.08424931 330.17863828 0.1018692 377.43923038 0.1241985 C377.76516928 1.70752697 378.08852297 3.29138776 378.41080326 4.87546498 C378.59115147 5.75741882 378.77149969 6.63937266 378.957313 7.54805237 C379.60801474 11.02645514 379.91836339 14.42532153 380.18532413 17.95622975 C380.24083439 18.66134693 380.29634464 19.36646412 380.35353702 20.0929485 C380.47151956 21.59500752 380.5870238 23.09726303 380.70018619 24.59969288 C381.00542016 28.64023076 381.33156899 32.67907429 381.65798038 36.7179485 C381.75592144 37.93427716 381.75592144 37.93427716 381.8558411 39.17517811 C382.4216036 46.10790857 383.12460681 53.02175084 383.87673038 59.9366985 C385.20573318 72.31626441 386.33171819 84.71104442 387.40630192 97.11501271 C387.59460298 99.284141 387.78476202 101.45310881 387.97679752 103.62190968 C388.24585398 106.66909919 388.50768545 109.71682155 388.76735538 112.7648235 C388.85048481 113.69564244 388.93361423 114.62646137 389.01926273 115.58548695 C389.20036014 117.7620274 389.32596019 119.9430762 389.43923038 122.1241985 C388.43923038 123.1241985 388.43923038 123.1241985 386.37282413 123.22185475 C385.54911319 123.21025318 384.72540226 123.19865162 383.87673038 123.1866985 C382.63729679 123.17316334 382.63729679 123.17316334 381.37282413 123.15935475 C380.41569523 123.1419524 380.41569523 123.1419524 379.43923038 123.1241985 C377.5307048 119.37295855 375.67011842 115.67279876 374.03688663 111.79216725 C372.461609 108.08273866 370.61212018 104.53844407 368.68923038 100.9991985 C367.97297018 99.67373946 367.25682634 98.34821754 366.54079288 97.022636 C366.1853339 96.36618092 365.82987491 95.70972584 365.46364444 95.03337818 C364.53019883 93.29373454 363.62013243 91.54159747 362.71266788 89.788261 C359.1040248 82.86171859 355.08521568 76.38239712 350.63893741 69.97185475 C347.43923038 65.32315349 347.43923038 65.32315349 347.43923038 63.1241985 C346.77923038 63.1241985 346.11923038 63.1241985 345.43923038 63.1241985 C344.38844913 61.46404225 344.38844913 61.46404225 343.12673038 59.0616985 C340.21821305 54.0398496 336.78916379 49.74273533 333.00173038 45.3741985 C332.46443302 44.74892262 331.92713566 44.12364674 331.37355655 43.47942311 C325.15363553 36.39321782 325.15363553 36.39321782 317.43923038 31.1241985 C317.43923038 30.4641985 317.43923038 29.8041985 317.43923038 29.1241985 C316.75860538 28.8766985 316.07798038 28.6291985 315.37673038 28.3741985 C312.43923038 27.1241985 312.43923038 27.1241985 309.37673038 25.2491985 C289.64075858 14.59803911 273.95825992 18.68144917 249.43923038 18.1241985 C249.43923038 64.6541985 249.43923038 111.1841985 249.43923038 159.1241985 C259.93394919 157.58595368 259.93394919 157.58595368 269.93923038 155.0616985 C273.76219635 153.89990265 277.50575275 152.83604053 281.43923038 152.1241985 C281.43923038 151.4641985 281.43923038 150.8041985 281.43923038 150.1241985 C283.41579288 148.57341725 283.41579288 148.57341725 286.06423038 146.8116985 C292.75471072 142.3413325 297.96485641 138.00581417 302.56423038 131.4366985 C303.21379703 130.51957081 303.21379703 130.51957081 303.87648624 129.58391529 C307.23538398 124.70793135 309.66945406 119.78970885 311.43923038 114.1241985 C311.76923038 113.1341985 312.09923038 112.1441985 312.43923038 111.1241985 C312.74806254 107.47826333 312.94881597 103.83179305 313.15798038 100.178886 C313.43923038 97.1241985 313.43923038 97.1241985 314.43923038 96.1241985 C317.40923038 96.1241985 320.37923038 96.1241985 323.43923038 96.1241985 C323.43923038 143.6441985 323.43923038 191.1641985 323.43923038 240.1241985 C320.46923038 240.1241985 317.49923038 240.1241985 314.43923038 240.1241985 C312.64749554 238.33246365 313.30856875 235.41888901 313.25173038 232.9991985 C312.58948987 222.56356981 309.12572166 213.26112172 302.43923038 205.1241985 C302.43923038 204.4641985 302.43923038 203.8041985 302.43923038 203.1241985 C301.77923038 203.1241985 301.11923038 203.1241985 300.43923038 203.1241985 C298.92360538 201.33122975 298.92360538 201.33122975 297.18923038 198.9366985 C288.37145415 187.36676212 273.6368014 180.74598938 259.43923038 178.1241985 C257.69127182 177.92209079 255.94101801 177.73908795 254.18923038 177.57341725 C252.85118351 177.44519581 252.85118351 177.44519581 251.48610538 177.31438404 C250.81063663 177.25162281 250.13516788 177.18886158 249.43923038 177.1241985 C249.39216198 191.10371538 249.35720681 205.08321967 249.33560604 219.06279999 C249.32523142 225.55619478 249.31118971 232.04953581 249.28835148 238.54289967 C249.26639512 244.82585693 249.25461442 251.10876293 249.2494759 257.39175564 C249.24582059 259.77195055 249.23868471 262.1521431 249.22777027 264.53231579 C248.60169778 306.94576219 248.60169778 306.94576219 268.43923038 343.1241985 C273.05439984 346.83461196 277.70262053 348.80955874 283.43923038 350.1241985 C283.43923038 353.0941985 283.43923038 356.0641985 283.43923038 359.1241985 C280.42942314 360.62910212 277.33103256 360.261284 274.03027958 360.25118214 C273.2574849 360.25274213 272.48469022 360.25430212 271.68847752 360.25590938 C269.08511237 360.25991508 266.481805 360.2567314 263.87843937 360.25359303 C262.01772124 360.25494725 260.15700339 360.2567273 258.29628605 360.25890309 C253.23244259 360.26347464 248.16861943 360.26168908 243.10477561 360.258524 C237.81611856 360.25599935 232.5274633 360.2583382 227.23880619 360.25991017 C218.35712474 360.26173139 209.47545159 360.25932661 200.5937714 360.25456959 C190.30999675 360.24912539 180.02624193 360.25089096 169.74246776 360.256396 C160.92804569 360.26092646 152.1136296 360.26157805 143.29920673 360.25895733 C138.02808763 360.2573944 132.75697785 360.25720124 127.48585933 360.26049381 C122.5324381 360.26337162 117.57904256 360.26139851 112.62562412 360.25559956 C110.80224059 360.25427154 108.97885491 360.25466677 107.15547222 360.25686222 C104.67735097 360.25957208 102.19931339 360.25619467 99.72119755 360.25118214 C98.9900854 360.25341286 98.25897325 360.25564358 97.50570619 360.2579419 C92.55338035 360.23834847 92.55338035 360.23834847 91.43923038 359.1241985 C91.36743074 357.60491812 91.35531031 356.08252368 91.37673038 354.5616985 C91.38575382 353.73540943 91.39477726 352.90912037 91.40407413 352.05779225 C91.41567569 351.41970631 91.42727726 350.78162037 91.43923038 350.1241985 C99.86780181 346.83848421 99.86780181 346.83848421 104.43923038 346.1241985 C104.43923038 345.4641985 104.43923038 344.8041985 104.43923038 344.1241985 C105.05798038 344.0623235 105.67673038 344.0004485 106.31423038 343.9366985 C107.36610538 343.534511 107.36610538 343.534511 108.43923038 343.1241985 C109.11970699 341.4631224 109.78336624 339.79514567 110.43923038 338.1241985 C111.68492821 336.14978118 112.95847184 334.19279546 114.25173038 332.2491985 C118.73110445 325.272123 121.18568878 318.08413298 123.43923038 310.1241985 C123.61166547 309.52148216 123.78410055 308.91876581 123.96176094 308.29778534 C125.89920869 299.47793102 125.59468679 289.9928002 125.64455265 280.99993092 C125.65445225 279.86661839 125.66435184 278.73330586 125.67455143 277.56565052 C125.70579566 273.87034302 125.73077504 270.17502272 125.75563663 266.47966725 C125.7762383 263.89749553 125.79723554 261.31532695 125.81860965 258.73316151 C125.86790779 252.66331839 125.91325707 246.59345789 125.95663202 240.52356994 C126.0063009 233.60438718 126.06110743 226.68524796 126.11631161 219.7661075 C126.22960372 205.55217884 126.33655417 191.33820761 126.43923038 177.1241985 C124.21762013 177.43356292 121.99632694 177.74520481 119.77516788 178.05779225 C118.53815128 178.23109059 117.30113468 178.40438893 116.02663273 178.58293873 C102.70312186 180.59316219 87.32172921 186.79347847 78.49001163 197.4835735 C77.91637882 198.27247975 77.34274601 199.061386 76.75173038 199.8741985 C74.99001163 202.2960735 74.99001163 202.2960735 73.43923038 204.1241985 C72.77923038 204.1241985 72.11923038 204.1241985 71.43923038 204.1241985 C71.19173038 204.8048235 70.94423038 205.4854485 70.68923038 206.1866985 C69.43923038 209.1241985 69.43923038 209.1241985 67.49782413 212.3116985 C65.31328675 216.09912404 64.22091258 219.8210152 63.25173038 224.0616985 C63.08737491 224.72621022 62.92301944 225.39072193 62.75368351 226.07537037 C61.63701109 230.7364605 60.96608692 235.36120256 60.43923038 240.1241985 C58.96016146 240.15109066 57.48095555 240.17054471 56.00173038 240.1866985 C55.17801944 240.19830006 54.35430851 240.20990162 53.50563663 240.22185475 C51.43923038 240.1241985 51.43923038 240.1241985 50.43923038 239.1241985 C50.3405869 237.29156502 50.31290893 235.4550902 50.31224674 233.61980397 C50.308017 231.8276949 50.308017 231.8276949 50.30370182 229.9993816 C50.30564641 228.66338292 50.3076946 227.32738438 50.30983585 225.991386 C50.30848184 224.59386356 50.3067019 223.19634148 50.30452579 221.79882008 C50.29995147 217.99313956 50.30174101 214.18748602 50.30490488 210.381805 C50.30742848 206.40775181 50.30509094 202.433701 50.30351871 198.45964772 C50.30169702 191.78467603 50.30410332 185.10971538 50.30885929 178.43474537 C50.31430191 170.70658886 50.31253925 162.97845872 50.30703288 155.25030285 C50.30250175 148.62696503 50.30185121 142.00363516 50.30447155 135.38029629 C50.30603433 131.41925457 50.30622809 127.45822527 50.30293506 123.49718434 C50.30005634 119.77411619 50.30203205 116.05108221 50.30782932 112.32801777 C50.30915691 110.95776383 50.30876281 109.58750704 50.30656666 108.21725422 C50.30385516 106.35436817 50.30784996 104.49147587 50.31224674 102.62859303 C50.31281228 101.0611887 50.31281228 101.0611887 50.31338924 99.46211964 C50.43923038 97.1241985 50.43923038 97.1241985 51.43923038 96.1241985 C52.95851076 96.05239886 54.4809052 96.04027842 56.00173038 96.0616985 C57.24116398 96.07523365 57.24116398 96.07523365 58.50563663 96.08904225 C59.46276554 96.10644459 59.46276554 96.10644459 60.43923038 96.1241985 C60.60938663 97.22376881 60.77954288 98.32333912 60.95485538 99.45622975 C62.853089 111.24371281 65.09186582 121.52495938 72.26735538 131.34685475 C73.43923038 133.1241985 73.43923038 133.1241985 73.43923038 135.1241985 C74.09923038 135.1241985 74.75923038 135.1241985 75.43923038 135.1241985 C75.43923038 135.7841985 75.43923038 136.4441985 75.43923038 137.1241985 C76.09923038 137.1241985 76.75923038 137.1241985 77.43923038 137.1241985 C79.06423038 138.4991985 79.06423038 138.4991985 80.43923038 140.1241985 C80.43923038 140.7841985 80.43923038 141.4441985 80.43923038 142.1241985 C81.27841007 142.51285084 81.27841007 142.51285084 82.13454288 142.90935475 C85.59372671 144.73275503 88.64639984 147.07705031 91.80641788 149.37029225 C96.996623 152.82786212 102.15568541 154.79322722 108.18923038 156.2491985 C108.84149601 156.41806568 109.49376163 156.58693287 110.16579288 156.76091725 C115.67814045 158.12291752 120.6483484 158.5451103 126.43923038 159.1241985 C126.43923038 112.5941985 126.43923038 66.0641985 126.43923038 18.1241985 C89.54788633 16.4238578 89.54788633 16.4238578 57.56423038 30.4991985 C51.61401548 35.1241985 51.61401548 35.1241985 49.43923038 35.1241985 C49.15048038 35.7223235 48.86173038 36.3204485 48.56423038 36.9366985 C47.43923038 39.1241985 47.43923038 39.1241985 45.43923038 42.1241985 C44.77923038 42.1241985 44.11923038 42.1241985 43.43923038 42.1241985 C43.16594913 42.71845631 42.89266788 43.31271412 42.61110538 43.92497975 C41.47824924 46.05097311 40.31106968 47.54598636 38.68923038 49.3116985 C35.1723451 53.3285747 32.31945031 57.6371892 29.43923038 62.1241985 C28.41829288 63.68847584 28.41829288 63.68847584 27.37673038 65.28435475 C21.85202826 73.77210714 16.5540544 82.38351562 11.43923038 91.1241985 C10.91716007 92.0110735 10.39508976 92.8979485 9.85719913 93.8116985 C5.88861118 100.80865797 2.66199278 108.12986207 -0.57834774 115.48430592 C-0.95024227 116.32711109 -1.32213681 117.16991627 -1.70530087 118.038261 C-2.03892636 118.8009026 -2.37255184 119.5635442 -2.7162872 120.34929615 C-3.56076962 122.1241985 -3.56076962 122.1241985 -4.56076962 123.1241985 C-6.08005 123.19599814 -7.60244443 123.20811857 -9.12326962 123.1866985 C-10.36270321 123.17316334 -10.36270321 123.17316334 -11.62717587 123.15935475 C-12.58430477 123.1419524 -12.58430477 123.1419524 -13.56076962 123.1241985 C-14.59638569 120.01735029 -14.56893515 118.45738575 -14.2787872 115.24944264 C-14.19137264 114.24892872 -14.10395809 113.2484148 -14.01389462 112.21758229 C-13.86114071 110.58000965 -13.86114071 110.58000965 -13.70530087 108.90935475 C-13.60370663 107.76696339 -13.50211239 106.62457203 -13.39743954 105.44756275 C-13.06207015 101.69337302 -12.71777987 97.94005953 -12.37326962 94.1866985 C-12.13992329 91.597471 -11.90709814 89.00819648 -11.67478329 86.41887623 C-11.20282349 81.17058274 -10.72715179 75.92264606 -10.24826962 70.67497975 C-9.62535266 63.8462851 -9.01328968 57.01666635 -8.40451962 50.1866985 C-8.14332614 47.26843817 -7.88169058 44.35021809 -7.61969906 41.43202931 C-7.45824255 39.63333376 -7.2971178 37.83460839 -7.13636166 36.03585011 C-6.32707958 27.00502462 -5.47312911 17.97988668 -4.50998837 8.96404225 C-4.38996205 7.80153698 -4.38996205 7.80153698 -4.26751095 6.61554676 C-3.56037991 0.17268005 -3.56037991 0.17268005 0 0 Z " fill="#050505" transform="translate(68.56076961755753,69.8758015036583)"/>
<path d="M0 0 C0.66 1.32 1.32 2.64 2 4 C0.35 5.32 -1.3 6.64 -3 8 C-3.66 7.34 -4.32 6.68 -5 6 C-4.34 6 -3.68 6 -3 6 C-2.690625 5.195625 -2.38125 4.39125 -2.0625 3.5625 C-1 1 -1 1 0 0 Z " fill="#5C5C5C" transform="translate(180,407)"/>
</svg>
