<?xml version="1.0" encoding="UTF-8"?>
<svg version="1.1" xmlns="http://www.w3.org/2000/svg" width="500" height="500">
<path d="M0 0 C1.97529672 -0.00576172 1.97529672 -0.00576172 3.99049842 -0.01163983 C5.47112399 -0.01085945 6.9517495 -0.00998063 8.43237495 -0.00901413 C9.99027522 -0.01159547 11.54817482 -0.01460798 13.1060735 -0.01801753 C17.40782052 -0.02611789 21.70955088 -0.02787878 26.01130462 -0.028615 C30.64261244 -0.03046029 35.27391151 -0.03800494 39.90521431 -0.04475021 C50.04139571 -0.05835544 60.17757317 -0.06436162 70.31376219 -0.06876087 C76.63745108 -0.07151952 82.96113843 -0.07575616 89.28482628 -0.08026505 C106.77785013 -0.09246042 124.27087275 -0.1027593 141.76390076 -0.10614014 C142.884368 -0.1063597 144.00483525 -0.10657927 145.15925605 -0.10680549 C146.28247191 -0.10702377 147.40568777 -0.10724204 148.56294048 -0.10746694 C150.83917165 -0.10791041 153.11540282 -0.10835697 155.39163399 -0.10880661 C156.52073394 -0.10902804 157.64983389 -0.10924947 158.81314899 -0.10947761 C177.11781349 -0.1134275 195.42243823 -0.13088615 213.72708736 -0.15416613 C232.50003111 -0.17784987 251.27295488 -0.19034062 270.04591382 -0.19150805 C280.59439198 -0.19242648 291.14281834 -0.19822075 301.69128227 -0.21632767 C310.67192596 -0.23168852 319.65250185 -0.23687296 328.63315617 -0.22858956 C333.21878926 -0.22466879 337.80428563 -0.22568175 342.38990211 -0.23964691 C346.58315793 -0.25230087 350.77617312 -0.25126398 354.9694282 -0.2390562 C356.4909782 -0.23708433 358.01254476 -0.24024559 359.53407143 -0.24890056 C361.59376148 -0.25988023 363.6525852 -0.25258739 365.71224976 -0.24050903 C366.8588428 -0.24110612 368.00543585 -0.24170321 369.18677413 -0.24231839 C371.98196602 0.13142776 371.98196602 0.13142776 373.83830082 1.50271153 C375.45657463 3.80732727 375.56383901 5.7070773 375.82571602 8.50252151 C375.93601143 9.61611038 376.04630684 10.72969925 376.15994453 11.87703323 C376.26621162 13.09535843 376.37247871 14.31368362 376.48196602 15.56892776 C376.66360298 17.4776265 376.66360298 17.4776265 376.84890938 19.4248848 C377.24871691 23.65852814 377.61761722 27.8946051 377.98196602 32.13142776 C378.04619759 32.87366592 378.11042915 33.61590408 378.17660713 34.38063431 C378.96919397 43.5531219 379.7296946 52.72809886 380.47453499 61.90457535 C380.98166961 68.14826506 381.50452448 74.39048185 382.04446602 80.63142776 C382.1217292 81.53014603 382.19899239 82.42886429 382.27859688 83.35481644 C382.74129995 88.64921676 383.27056448 93.93355268 383.83181953 99.21834183 C384.67844521 107.22034423 385.27687124 115.07068491 384.98196602 123.13142776 C382.01196602 123.13142776 379.04196602 123.13142776 375.98196602 123.13142776 C374.07807029 119.38928789 372.22038752 115.69801369 370.59134102 111.82674026 C368.94875295 107.95874379 367.03261106 104.26877102 365.04446602 100.56892776 C364.7099543 99.93535355 364.37544258 99.30177933 364.03079414 98.64900589 C362.44379426 95.67987893 360.81754878 92.89055186 358.91555977 90.10408401 C356.98196602 87.13142776 356.98196602 87.13142776 355.55618477 83.74470901 C353.73157641 79.55671216 351.39830853 76.05196875 348.79446602 72.31892776 C343.98196602 65.39133736 343.98196602 65.39133736 343.98196602 63.13142776 C343.32196602 63.13142776 342.66196602 63.13142776 341.98196602 63.13142776 C340.93118477 61.47127151 340.93118477 61.47127151 339.66946602 59.06892776 C336.76094869 54.04707887 333.33189943 49.7499646 329.54446602 45.38142776 C329.00716866 44.75615189 328.46987129 44.13087601 327.91629219 43.48665237 C321.69637116 36.40044709 321.69637116 36.40044709 313.98196602 31.13142776 C313.98196602 30.47142776 313.98196602 29.81142776 313.98196602 29.13142776 C313.30134102 28.88392776 312.62071602 28.63642776 311.91946602 28.38142776 C308.98196602 27.13142776 308.98196602 27.13142776 305.91946602 25.25642776 C286.18349422 14.60526838 270.50099556 18.68867844 245.98196602 18.13142776 C245.98196602 64.66142776 245.98196602 111.19142776 245.98196602 159.13142776 C256.47668483 157.59318295 256.47668483 157.59318295 266.48196602 155.06892776 C270.30493199 153.90713191 274.04848839 152.8432698 277.98196602 152.13142776 C277.98196602 151.47142776 277.98196602 150.81142776 277.98196602 150.13142776 C279.92337227 148.61580276 279.92337227 148.61580276 282.54446602 146.88142776 C283.46356758 146.24720901 284.38266914 145.61299026 285.32962227 144.95955276 C286.83370264 143.92286703 288.3399591 142.88927796 289.85305977 141.86580276 C299.36418764 134.65832936 306.68821919 121.66012913 308.98196602 110.13142776 C309.3507251 106.63011732 309.60000097 103.16975596 309.70852852 99.65095901 C309.79876289 98.8195137 309.88899727 97.98806839 309.98196602 97.13142776 C311.98196602 96.13142776 311.98196602 96.13142776 319.98196602 96.13142776 C319.98196602 143.65142776 319.98196602 191.17142776 319.98196602 240.13142776 C317.34196602 240.13142776 314.70196602 240.13142776 311.98196602 240.13142776 C309.29862603 237.44808777 309.75478138 236.00132295 309.66946602 232.25642776 C309.30601721 226.07094055 307.77197332 221.36144322 305.13821602 215.78767776 C304.01849765 213.21535178 303.42221207 210.89297115 302.98196602 208.13142776 C302.32196602 208.13142776 301.66196602 208.13142776 300.98196602 208.13142776 C299.37548917 206.11885268 297.85973562 204.09399958 296.35696602 202.00642776 C292.42492168 196.73438131 288.66857992 192.56591735 282.98196602 189.13142776 C282.32067696 188.7073262 281.65938789 188.28322464 280.97805977 187.84627151 C272.18171307 182.54902406 262.83721729 179.4571949 252.72488594 178.06184769 C251.46262688 177.88626831 250.20036781 177.71068893 248.89985847 177.52978897 C247.93695396 177.39832977 246.97404945 177.26687057 245.98196602 177.13142776 C246.04278323 193.00553825 246.120479 208.87947352 246.21768093 224.75339794 C246.2624408 232.12573113 246.30189968 239.49801813 246.32840157 246.87044144 C246.35154364 253.30432889 246.38511831 259.73806773 246.43066758 266.17183691 C246.45438411 269.57115361 246.47325266 272.97032514 246.47957993 276.36972237 C245.91910488 302.30571943 245.91910488 302.30571943 253.73196602 326.63142776 C254.08049629 327.28594925 254.42902657 327.94047073 254.78811836 328.6148262 C261.03871611 340.05016012 267.38791915 346.31504993 279.98196602 350.13142776 C279.98196602 353.10142776 279.98196602 356.07142776 279.98196602 359.13142776 C249.62110944 360.49295094 219.23062051 360.28513685 188.84704864 360.25999618 C183.02084595 360.25568288 177.19466512 360.25874113 171.36846381 360.26362526 C165.63489026 360.26823058 159.90132583 360.2687717 154.16775101 360.26618659 C150.79032177 360.26466476 147.41291811 360.26473358 144.03548813 360.26772308 C125.32759152 360.28066303 106.67343539 359.86734116 87.98196602 359.13142776 C87.98196602 356.16142776 87.98196602 353.19142776 87.98196602 350.13142776 C88.77860664 349.82849808 89.57524727 349.52556839 90.39602852 349.21345901 C91.45563789 348.7945137 92.51524727 348.37556839 93.60696602 347.94392776 C95.17317696 347.33484573 95.17317696 347.33484573 96.77102852 346.71345901 C103.40305331 343.44585556 107.00331049 339.26662935 110.60696602 333.00642776 C110.99376534 332.34626663 111.38056465 331.6861055 111.77908516 331.00593948 C118.11544716 319.92301259 121.13342788 308.36590292 121.6008625 295.65999222 C121.63853202 294.758569 121.67620153 293.85714579 121.71501255 292.92840672 C122.14574657 281.51355 122.10657881 270.09543222 122.07962227 258.67439651 C122.0777514 256.30544439 122.07633067 253.93649187 122.07533455 251.56753922 C122.07156195 245.40779378 122.06177823 239.24807286 122.05063057 233.08833694 C122.04030176 226.7726258 122.03581265 220.45691059 122.03079414 214.14119339 C122.02014987 201.80459422 122.00313873 189.46801305 121.98196602 177.13142776 C119.75113779 177.43872515 117.52075346 177.74924612 115.29055977 178.06111526 C113.42742134 178.31997513 113.42742134 178.31997513 111.52664375 178.58406448 C102.72948312 179.9425075 95.68653753 183.1250363 87.98221016 187.43855667 C83.16526957 190.13142776 83.16526957 190.13142776 80.98196602 190.13142776 C80.98196602 190.79142776 80.98196602 191.45142776 80.98196602 192.13142776 C79.83425273 193.31289733 78.67912389 194.48815646 77.48587227 195.62361526 C75.25333706 197.86194926 73.29964975 200.31877956 71.31399727 202.77595901 C70.87442696 203.2232637 70.43485664 203.67056839 69.98196602 204.13142776 C69.32196602 204.13142776 68.66196602 204.13142776 67.98196602 204.13142776 C67.73446602 204.81205276 67.48696602 205.49267776 67.23196602 206.19392776 C65.98196602 209.13142776 65.98196602 209.13142776 64.04055977 212.31892776 C61.85602239 216.10635331 60.76364822 219.82824447 59.79446602 224.06892776 C59.63011055 224.73343948 59.46575508 225.3979512 59.29641914 226.08259964 C58.17974673 230.74368977 57.50882255 235.36843183 56.98196602 240.13142776 C55.5028971 240.15831993 54.02369119 240.17777398 52.54446602 240.19392776 C51.72075508 240.20552933 50.89704414 240.21713089 50.04837227 240.22908401 C47.98196602 240.13142776 47.98196602 240.13142776 46.98196602 239.13142776 C46.88332253 237.29879429 46.85564457 235.46231947 46.85498238 233.62703323 C46.85075264 231.83492416 46.85075264 231.83492416 46.84643745 230.00661087 C46.84838205 228.67061219 46.85043023 227.33461365 46.85257149 225.99861526 C46.85121747 224.60109283 46.84943754 223.20357075 46.84726143 221.80604935 C46.8426871 218.00036882 46.84447665 214.19471529 46.84764051 210.38903427 C46.85016412 206.41498108 46.84782658 202.44093026 46.84625435 198.46687698 C46.84443265 191.79190529 46.84683896 185.11694465 46.85159492 178.44197464 C46.85703755 170.71381813 46.85527489 162.98568799 46.84976852 155.25753212 C46.84523738 148.63419429 46.84458684 142.01086443 46.84720719 135.38752556 C46.84876996 131.42648384 46.84896372 127.46545454 46.8456707 123.5044136 C46.84279198 119.78134546 46.84476769 116.05831148 46.85056496 112.33524704 C46.85189255 110.9649931 46.85149845 109.59473631 46.84930229 108.22448349 C46.8465908 106.36159744 46.8505856 104.49870513 46.85498238 102.6358223 C46.85554791 101.06841797 46.85554791 101.06841797 46.85612488 99.46934891 C46.98196602 97.13142776 46.98196602 97.13142776 47.98196602 96.13142776 C49.5012464 96.05962813 51.02364084 96.04750769 52.54446602 96.06892776 C53.78389961 96.08246292 53.78389961 96.08246292 55.04837227 96.09627151 C56.00550117 96.11367386 56.00550117 96.11367386 56.98196602 96.13142776 C57.15212227 97.23099808 57.32227852 98.33056839 57.49759102 99.46345901 C59.39582463 111.25094207 61.63460146 121.53218865 68.81009102 131.35408401 C69.98196602 133.13142776 69.98196602 133.13142776 69.98196602 135.13142776 C70.64196602 135.13142776 71.30196602 135.13142776 71.98196602 135.13142776 C72.89376712 136.22681298 73.75982842 137.36030042 74.60696602 138.50642776 C86.83358474 152.79199891 104.22033109 156.39886854 121.98196602 159.13142776 C121.98196602 112.60142776 121.98196602 66.07142776 121.98196602 18.13142776 C85.59893342 16.53287708 85.59893342 16.53287708 54.10696602 30.50642776 C48.15675112 35.13142776 48.15675112 35.13142776 45.98196602 35.13142776 C45.73446602 35.68830276 45.48696602 36.24517776 45.23196602 36.81892776 C43.75271784 39.5555369 42.04729162 41.80793646 39.98196602 44.13142776 C39.32196602 44.13142776 38.66196602 44.13142776 37.98196602 44.13142776 C37.72415352 44.69216995 37.46634102 45.25291214 37.20071602 45.83064651 C35.83553672 48.40786 34.23157581 50.60991962 32.48196602 52.94392776 C19.93815632 70.05323217 9.17734604 88.11751713 -0.07858086 107.20418167 C-1.69816182 110.52667963 -3.36049361 113.82775212 -5.01803398 117.13142776 C-5.88428398 118.86392776 -5.88428398 118.86392776 -6.76803398 120.63142776 C-7.18053398 121.45642776 -7.59303398 122.28142776 -8.01803398 123.13142776 C-10.98803398 123.13142776 -13.95803398 123.13142776 -17.01803398 123.13142776 C-18.32994128 119.19570586 -17.76138303 115.7475513 -17.34615898 111.69783401 C-17.26416252 110.84594498 -17.18216606 109.99405594 -17.09768486 109.11635208 C-16.91978704 107.27375288 -16.73907331 105.43142386 -16.55587578 103.58934402 C-16.06705822 98.67230171 -15.5983024 93.75333841 -15.12740898 88.83455276 C-15.03153496 87.83861603 -14.93566093 86.84267929 -14.83688164 85.81656265 C-14.04857896 77.58162104 -13.35134149 69.34143794 -12.69070244 61.09541702 C-11.63514776 47.94295942 -10.4555095 34.80500918 -9.16183281 21.67375565 C-8.98347286 19.86239371 -8.80653856 18.05089079 -8.63107109 16.23924637 C-8.38721013 13.73015121 -8.13726194 11.22174408 -7.88522148 8.71345901 C-7.77601875 7.58037308 -7.77601875 7.58037308 -7.66460991 6.42439651 C-6.99485383 -0.0979457 -6.45128623 0.00701538 0 0 Z " fill="#FAFAFA" transform="translate(72.01803398132324,69.86857223510742)"/>
<path d="M0 0 C14.52 0 29.04 0 44 0 C44 0.33 44 0.66 44 1 C30.14 1 16.28 1 2 1 C2 47.53 2 94.06 2 142 C8.435 141.01 8.435 141.01 15 140 C16.65 140 18.3 140 20 140 C16 143 16 143 0 143 C0 95.81 0 48.62 0 0 Z " fill="#747373" transform="translate(316,87)"/>
<path d="M0 0 C0.33 0 0.66 0 1 0 C1 46.53 1 93.06 1 141 C-3.95 141 -8.9 141 -14 141 C-14.33 140.34 -14.66 139.68 -15 139 C-17.01669827 137.86649466 -17.01669827 137.86649466 -19 137 C-16 137.33333333 -13 137.66666667 -10 138 C-9.25854233 138.08238419 -8.51708466 138.16476837 -7.75315857 138.24964905 C-6.54974571 138.38336159 -6.54974571 138.38336159 -5.32202148 138.51977539 C-4.51240463 138.60973282 -3.70278778 138.69969025 -2.86863708 138.79237366 C-2.25198685 138.86089035 -1.63533661 138.92940704 -1 139 C-1.00092179 138.33223541 -1.00184359 137.66447083 -1.00279331 136.97647095 C-1.02490255 120.70886964 -1.04143789 104.44127311 -1.05181217 88.17366028 C-1.05696278 80.30668599 -1.0639819 72.43972175 -1.07543945 64.57275391 C-1.08542407 57.71384423 -1.09186242 50.85494183 -1.09408849 43.99602509 C-1.09538919 40.36617634 -1.09843436 36.73634841 -1.10573006 33.10650635 C-1.11381904 29.04885952 -1.1139887 24.99124862 -1.11352539 20.93359375 C-1.11712067 19.73740921 -1.12071594 18.54122467 -1.12442017 17.30879211 C-1.11717449 11.44099208 -0.89596009 5.80151009 0 0 Z " fill="#81807F" transform="translate(195,90)"/>
<path d="M0 0 C0.33 0 0.66 0 1 0 C1.6656584 34.18616073 2.16538741 68.37226265 2.5625 102.5625 C2.5736018 103.5181636 2.5847036 104.47382721 2.59614182 105.45845032 C2.73351522 117.3056027 2.86809579 129.1527855 3 141 C5.31 141.33 7.62 141.66 10 142 C10 142.33 10 142.66 10 143 C8.52093108 143.02689216 7.04172517 143.04634621 5.5625 143.0625 C4.73878906 143.07410156 3.91507812 143.08570313 3.06640625 143.09765625 C1 143 1 143 0 142 C-0.09646028 140.16505514 -0.12187344 138.32635413 -0.12025452 136.48887634 C-0.12162918 135.2926918 -0.12300385 134.09650726 -0.12442017 132.86407471 C-0.12088057 131.52648901 -0.11724575 130.18890356 -0.11352539 128.85131836 C-0.11324352 127.45217389 -0.11340125 126.05302927 -0.1139679 124.65388489 C-0.11425588 120.84413541 -0.10835898 117.03441714 -0.10139394 113.22467494 C-0.09516059 109.24748691 -0.09455662 105.27029824 -0.09336853 101.29310608 C-0.09025516 93.75661461 -0.08204169 86.22013757 -0.07201904 78.68365246 C-0.06085808 70.10580172 -0.0553475 61.5279503 -0.05032361 52.9500941 C-0.03985908 35.30005454 -0.02225953 17.65002843 0 0 Z " fill="#7F7C7D" transform="translate(119,167)"/>
<path d="M0 0 C-2.61478952 2.56761548 -3.94528576 2.9956345 -7.671875 3.29296875 C-9.03156035 3.27316751 -10.3910934 3.23759202 -11.75 3.1875 C-12.44738281 3.17396484 -13.14476562 3.16042969 -13.86328125 3.14648438 C-15.57585541 3.1112945 -17.28802941 3.05749155 -19 3 C-19 2.67 -19 2.34 -19 2 C-16.77149723 1.66225668 -14.54216533 1.3299813 -12.3125 1 C-10.45044922 0.7215625 -10.45044922 0.7215625 -8.55078125 0.4375 C-5.64113629 0.07899589 -2.92299978 -0.08942256 0 0 Z " fill="#AFABAA" transform="translate(336,227)"/>
<path d="M0 0 C0.33 0.66 0.66 1.32 1 2 C-0.625 5 -0.625 5 -3 8 C-6.25 8.375 -6.25 8.375 -9 8 C-6.17493137 5.0702992 -3.21203935 2.49825283 0 0 Z " fill="#A2A09E" transform="translate(361,212)"/>
<path d="M0 0 C0.144375 0.61875 0.28875 1.2375 0.4375 1.875 C0.93152225 4.03258322 0.93152225 4.03258322 2 6 C0.02 7.32 -1.96 8.64 -4 10 C-2.66666667 6.66666667 -1.33333333 3.33333333 0 0 Z " fill="#AAA8A7" transform="translate(189,390)"/>
</svg>
